<svg width="787" height="281" viewBox="0 0 787 281" fill="none" xmlns="http://www.w3.org/2000/svg">
<path d="M159.682 219H163.417V192.315H172.957V188.985H150.187V192.315H159.682V219Z" fill="white"/>
<path d="M192.501 219H195.876V203.655C195.876 198.93 193.491 196.725 188.946 196.725C185.661 196.725 182.691 198.615 181.161 200.415V188.985H177.786V219H181.161V203.115C182.466 201.36 184.986 199.74 187.596 199.74C190.521 199.74 192.501 200.865 192.501 204.69V219Z" fill="white"/>
<path d="M201.355 208.11C201.355 214.905 205.99 219.54 212.425 219.54C215.98 219.54 218.905 218.37 221.065 216.21L219.445 214.005C217.735 215.76 215.215 216.75 212.74 216.75C208.06 216.75 205.18 213.33 204.91 209.235H222.505V208.38C222.505 201.855 218.635 196.725 212.065 196.725C205.855 196.725 201.355 201.81 201.355 208.11ZM212.02 199.515C216.97 199.515 219.13 203.52 219.175 206.76H204.91C205.09 203.43 207.385 199.515 212.02 199.515Z" fill="white"/>
<path d="M244.748 227.28V216.21C246.503 218.46 248.888 219.54 251.453 219.54C257.033 219.54 261.083 215.355 261.083 208.11C261.083 200.865 257.033 196.725 251.453 196.725C248.798 196.725 246.413 197.895 244.748 200.01V197.265H239.033V227.28H244.748ZM255.143 208.11C255.143 211.89 252.938 214.455 249.653 214.455C247.808 214.455 245.693 213.33 244.748 211.98V204.285C245.693 202.89 247.808 201.81 249.653 201.81C252.938 201.81 255.143 204.375 255.143 208.11Z" fill="white"/>
<path d="M263.961 208.11C263.961 215.085 268.956 219.54 275.571 219.54C278.946 219.54 282.366 218.505 284.526 216.525L282.006 212.835C280.611 214.185 278.226 214.995 276.201 214.995C272.511 214.995 270.306 212.7 269.946 209.955H286.101V208.695C286.101 201.585 281.691 196.725 275.211 196.725C268.596 196.725 263.961 201.81 263.961 208.11ZM275.211 201.27C278.991 201.27 280.431 204.015 280.566 206.085H269.856C270.126 203.925 271.656 201.27 275.211 201.27Z" fill="white"/>
<path d="M288.834 208.11C288.834 215.085 293.829 219.54 300.444 219.54C303.819 219.54 307.239 218.505 309.399 216.525L306.879 212.835C305.484 214.185 303.099 214.995 301.074 214.995C297.384 214.995 295.179 212.7 294.819 209.955H310.974V208.695C310.974 201.585 306.564 196.725 300.084 196.725C293.469 196.725 288.834 201.81 288.834 208.11ZM300.084 201.27C303.864 201.27 305.304 204.015 305.439 206.085H294.729C294.999 203.925 296.529 201.27 300.084 201.27Z" fill="white"/>
<path d="M315.102 219H320.817V204.645C321.762 203.25 324.282 202.17 326.172 202.17C326.802 202.17 327.342 202.26 327.747 202.35V196.77C325.047 196.77 322.347 198.3 320.817 200.235V197.265H315.102V219Z" fill="white"/>
<path d="M329.833 210.54H340.633V205.68H329.833V210.54Z" fill="white"/>
<path d="M352.099 219.54C354.484 219.54 356.014 218.91 356.869 218.145L355.654 213.825C355.339 214.14 354.529 214.455 353.674 214.455C352.414 214.455 351.694 213.42 351.694 212.07V202.26H356.104V197.265H351.694V191.325H345.934V197.265H342.334V202.26H345.934V213.6C345.934 217.47 348.094 219.54 352.099 219.54Z" fill="white"/>
<path d="M370.094 219.54C377.294 219.54 381.614 214.32 381.614 208.11C381.614 201.945 377.294 196.725 370.094 196.725C362.939 196.725 358.619 201.945 358.619 208.11C358.619 214.32 362.939 219.54 370.094 219.54ZM370.094 214.455C366.539 214.455 364.559 211.53 364.559 208.11C364.559 204.735 366.539 201.81 370.094 201.81C373.649 201.81 375.674 204.735 375.674 208.11C375.674 211.53 373.649 214.455 370.094 214.455Z" fill="white"/>
<path d="M384.369 210.54H395.169V205.68H384.369V210.54Z" fill="white"/>
<path d="M405.06 227.28V216.21C406.815 218.46 409.2 219.54 411.765 219.54C417.345 219.54 421.395 215.355 421.395 208.11C421.395 200.865 417.345 196.725 411.765 196.725C409.11 196.725 406.725 197.895 405.06 200.01V197.265H399.345V227.28H405.06ZM415.455 208.11C415.455 211.89 413.25 214.455 409.965 214.455C408.12 214.455 406.005 213.33 405.06 211.98V204.285C406.005 202.89 408.12 201.81 409.965 201.81C413.25 201.81 415.455 204.375 415.455 208.11Z" fill="white"/>
<path d="M424.273 208.11C424.273 215.085 429.268 219.54 435.883 219.54C439.258 219.54 442.679 218.505 444.839 216.525L442.319 212.835C440.924 214.185 438.538 214.995 436.513 214.995C432.823 214.995 430.618 212.7 430.258 209.955H446.414V208.695C446.414 201.585 442.003 196.725 435.523 196.725C428.908 196.725 424.273 201.81 424.273 208.11ZM435.523 201.27C439.303 201.27 440.744 204.015 440.879 206.085H430.168C430.438 203.925 431.968 201.27 435.523 201.27Z" fill="white"/>
<path d="M449.147 208.11C449.147 215.085 454.142 219.54 460.757 219.54C464.132 219.54 467.552 218.505 469.712 216.525L467.192 212.835C465.797 214.185 463.412 214.995 461.387 214.995C457.697 214.995 455.492 212.7 455.132 209.955H471.287V208.695C471.287 201.585 466.877 196.725 460.397 196.725C453.782 196.725 449.147 201.81 449.147 208.11ZM460.397 201.27C464.177 201.27 465.617 204.015 465.752 206.085H455.042C455.312 203.925 456.842 201.27 460.397 201.27Z" fill="white"/>
<path d="M475.415 219H481.13V204.645C482.075 203.25 484.595 202.17 486.485 202.17C487.115 202.17 487.655 202.26 488.06 202.35V196.77C485.36 196.77 482.66 198.3 481.13 200.235V197.265H475.415V219Z" fill="white"/>
<path d="M501.839 204.015C501.839 211.755 505.664 219.54 514.259 219.54C522.809 219.54 526.679 211.755 526.679 204.015C526.679 196.275 522.809 188.535 514.259 188.535C505.664 188.535 501.839 196.275 501.839 204.015ZM520.154 204.015C520.154 209.55 518.534 213.87 514.259 213.87C509.939 213.87 508.319 209.55 508.319 204.015C508.319 198.48 509.939 194.205 514.259 194.205C518.534 194.205 520.154 198.48 520.154 204.015Z" fill="white"/>
<path d="M529.384 196.095C529.384 200.28 532.399 203.475 536.989 203.475C541.624 203.475 544.639 200.28 544.639 196.095C544.639 191.865 541.624 188.535 536.989 188.535C532.399 188.535 529.384 191.865 529.384 196.095ZM534.064 219H537.439L556.654 188.985H553.234L534.064 219ZM540.544 196.095C540.544 198.435 539.059 199.965 536.989 199.965C534.964 199.965 533.434 198.435 533.434 196.095C533.434 193.575 534.964 192.09 536.989 192.09C539.059 192.09 540.544 193.575 540.544 196.095ZM545.899 212.115C545.899 216.3 548.914 219.54 553.504 219.54C558.094 219.54 561.154 216.3 561.154 212.115C561.154 207.885 558.094 204.555 553.504 204.555C548.914 204.555 545.899 207.885 545.899 212.115ZM557.104 212.115C557.104 214.545 555.574 216.03 553.504 216.03C551.434 216.03 549.949 214.545 549.949 212.115C549.949 209.64 551.434 208.11 553.504 208.11C555.574 208.11 557.104 209.64 557.104 212.115Z" fill="white"/>
<path d="M577.881 219H583.641V202.26H588.051V197.265H583.641V196.185C583.641 194.115 584.721 193.035 586.341 193.035C587.016 193.035 587.691 193.17 588.186 193.485L589.356 189.435C588.321 188.895 586.836 188.535 585.216 188.535C580.941 188.535 577.881 191.37 577.881 196.095V197.265H574.281V202.26H577.881V219Z" fill="white"/>
<path d="M589.947 208.11C589.947 215.085 594.942 219.54 601.557 219.54C604.932 219.54 608.352 218.505 610.512 216.525L607.992 212.835C606.597 214.185 604.212 214.995 602.187 214.995C598.497 214.995 596.292 212.7 595.932 209.955H612.087V208.695C612.087 201.585 607.677 196.725 601.197 196.725C594.582 196.725 589.947 201.81 589.947 208.11ZM601.197 201.27C604.977 201.27 606.417 204.015 606.552 206.085H595.842C596.112 203.925 597.642 201.27 601.197 201.27Z" fill="white"/>
<path d="M614.82 208.11C614.82 215.085 619.815 219.54 626.43 219.54C629.805 219.54 633.225 218.505 635.385 216.525L632.865 212.835C631.47 214.185 629.085 214.995 627.06 214.995C623.37 214.995 621.165 212.7 620.805 209.955H636.96V208.695C636.96 201.585 632.55 196.725 626.07 196.725C619.455 196.725 614.82 201.81 614.82 208.11ZM626.07 201.27C629.85 201.27 631.29 204.015 631.425 206.085H620.715C620.985 203.925 622.515 201.27 626.07 201.27Z" fill="white"/>
<path d="M80.2093 269H83.8993L92.9443 247.265H89.2543L82.0543 265.085L74.8093 247.265H71.1643L80.2093 269Z" fill="white"/>
<path d="M98.1299 243.62C99.3899 243.62 100.425 242.585 100.425 241.325C100.425 240.065 99.3899 239.075 98.1299 239.075C96.9149 239.075 95.8799 240.065 95.8799 241.325C95.8799 242.585 96.9149 243.62 98.1299 243.62ZM96.4649 269H99.8399V247.265H96.4649V269Z" fill="white"/>
<path d="M122.322 269H125.697V238.985H122.322V250.55C120.567 248.165 117.912 246.725 114.987 246.725C109.272 246.725 105.312 251.225 105.312 258.155C105.312 265.22 109.317 269.54 114.987 269.54C118.047 269.54 120.702 267.965 122.322 265.76V269ZM122.322 263.105C121.107 264.995 118.497 266.525 115.797 266.525C111.432 266.525 108.822 262.97 108.822 258.155C108.822 253.34 111.432 249.74 115.797 249.74C118.497 249.74 121.107 251.36 122.322 253.25V263.105Z" fill="white"/>
<path d="M131.196 258.11C131.196 264.905 135.831 269.54 142.266 269.54C145.821 269.54 148.746 268.37 150.906 266.21L149.286 264.005C147.576 265.76 145.056 266.75 142.581 266.75C137.901 266.75 135.021 263.33 134.751 259.235H152.346V258.38C152.346 251.855 148.476 246.725 141.906 246.725C135.696 246.725 131.196 251.81 131.196 258.11ZM141.861 249.515C146.811 249.515 148.971 253.52 149.016 256.76H134.751C134.931 253.43 137.226 249.515 141.861 249.515Z" fill="white"/>
<path d="M167.308 269.54C173.923 269.54 178.063 264.41 178.063 258.11C178.063 251.81 173.923 246.725 167.308 246.725C160.693 246.725 156.553 251.81 156.553 258.11C156.553 264.41 160.693 269.54 167.308 269.54ZM167.308 266.525C162.673 266.525 160.063 262.565 160.063 258.11C160.063 253.7 162.673 249.74 167.308 249.74C171.943 249.74 174.508 253.7 174.508 258.11C174.508 262.565 171.943 266.525 167.308 266.525Z" fill="white"/>
<path d="M195.121 274.58C197.686 277.1 200.206 277.82 203.896 277.82C209.206 277.82 214.246 275.57 214.246 268.37V247.265H210.871V250.55C209.116 248.165 206.506 246.725 203.581 246.725C197.866 246.725 193.906 251.045 193.906 258.02C193.906 265.04 197.911 269.27 203.581 269.27C206.641 269.27 209.296 267.605 210.871 265.4V268.505C210.871 273.275 207.496 275.03 203.896 275.03C200.791 275.03 198.631 274.22 196.831 272.06L195.121 274.58ZM210.871 262.745C209.701 264.635 207.091 266.3 204.391 266.3C200.026 266.3 197.416 262.79 197.416 258.02C197.416 253.205 200.026 249.74 204.391 249.74C207.091 249.74 209.701 251.36 210.871 253.25V262.745Z" fill="white"/>
<path d="M234.596 269H237.971V254.06C237.971 248.795 234.146 246.725 229.556 246.725C226.001 246.725 223.211 247.895 220.871 250.325L222.446 252.665C224.381 250.595 226.496 249.65 229.106 249.65C232.256 249.65 234.596 251.315 234.596 254.24V258.155C232.841 256.13 230.366 255.185 227.396 255.185C223.706 255.185 219.791 257.48 219.791 262.34C219.791 267.065 223.706 269.54 227.396 269.54C230.321 269.54 232.796 268.505 234.596 266.525V269ZM234.596 264.41C233.291 266.21 230.996 267.11 228.611 267.11C225.461 267.11 223.256 265.13 223.256 262.385C223.256 259.595 225.461 257.615 228.611 257.615C230.996 257.615 233.291 258.515 234.596 260.315V264.41Z" fill="white"/>
<path d="M270.971 269H274.346V253.295C274.346 248.93 272.231 246.725 268.271 246.725C265.121 246.725 262.196 248.795 260.981 250.775C260.351 248.525 258.461 246.725 255.131 246.725C251.936 246.725 249.011 249.02 248.111 250.415V247.265H244.736V269H248.111V253.115C249.281 251.36 251.621 249.74 253.826 249.74C256.661 249.74 257.831 251.495 257.831 254.24V269H261.206V253.07C262.331 251.36 264.716 249.74 266.966 249.74C269.756 249.74 270.971 251.495 270.971 254.24V269Z" fill="white"/>
<path d="M279.819 258.11C279.819 264.905 284.454 269.54 290.889 269.54C294.444 269.54 297.369 268.37 299.529 266.21L297.909 264.005C296.199 265.76 293.679 266.75 291.204 266.75C286.524 266.75 283.644 263.33 283.374 259.235H300.969V258.38C300.969 251.855 297.099 246.725 290.529 246.725C284.319 246.725 279.819 251.81 279.819 258.11ZM290.484 249.515C295.434 249.515 297.594 253.52 297.639 256.76H283.374C283.554 253.43 285.849 249.515 290.484 249.515Z" fill="white"/>
<path d="M304.546 266.12C306.751 268.46 309.766 269.54 313.321 269.54C318.946 269.54 321.871 266.615 321.871 262.97C321.871 258.155 317.506 257.075 313.726 256.22C310.891 255.545 308.416 254.87 308.416 252.755C308.416 250.82 310.261 249.47 313.231 249.47C316.021 249.47 318.406 250.64 319.711 252.215L321.286 249.875C319.531 248.12 316.921 246.725 313.231 246.725C308.056 246.725 305.131 249.605 305.131 252.98C305.131 257.48 309.316 258.47 313.006 259.325C315.931 260.045 318.586 260.81 318.586 263.195C318.586 265.31 316.786 266.795 313.456 266.795C310.486 266.795 307.741 265.355 306.301 263.69L304.546 266.12Z" fill="white"/>
<path d="M337.695 258.11C337.695 264.59 342.06 269.54 348.54 269.54C352.5 269.54 354.84 267.92 356.505 265.76L354.255 263.69C352.815 265.625 350.97 266.525 348.72 266.525C344.085 266.525 341.205 262.925 341.205 258.11C341.205 253.295 344.085 249.74 348.72 249.74C350.97 249.74 352.815 250.595 354.255 252.575L356.505 250.505C354.84 248.345 352.5 246.725 348.54 246.725C342.06 246.725 337.695 251.675 337.695 258.11Z" fill="white"/>
<path d="M361.235 269H364.61V253.61C365.6 251.855 368.435 250.145 370.505 250.145C371.045 250.145 371.45 250.19 371.855 250.28V246.815C368.885 246.815 366.365 248.48 364.61 250.775V247.265H361.235V269Z" fill="white"/>
<path d="M375.414 274.445L374.874 277.505C375.504 277.685 376.629 277.82 377.349 277.82C380.229 277.775 382.434 276.56 383.739 273.41L394.629 247.265H390.939L383.739 265.085L376.494 247.265H372.849L381.939 269.225L380.499 272.51C379.734 274.31 378.744 274.805 377.259 274.805C376.719 274.805 375.909 274.67 375.414 274.445Z" fill="white"/>
<path d="M401.524 277.28V265.715C403.279 268.145 405.889 269.54 408.859 269.54C414.574 269.54 418.534 265.13 418.534 258.11C418.534 251.045 414.574 246.725 408.859 246.725C405.799 246.725 403.099 248.3 401.524 250.505V247.265H398.149V277.28H401.524ZM414.979 258.11C414.979 262.925 412.369 266.525 408.004 266.525C405.349 266.525 402.694 264.905 401.524 263.015V253.205C402.694 251.315 405.349 249.74 408.004 249.74C412.369 249.74 414.979 253.295 414.979 258.11Z" fill="white"/>
<path d="M429.479 269.54C431.459 269.54 432.674 268.955 433.529 268.145L432.539 265.625C432.089 266.12 431.189 266.525 430.244 266.525C428.759 266.525 428.039 265.355 428.039 263.735V250.235H432.449V247.265H428.039V241.325H424.664V247.265H421.064V250.235H424.664V264.455C424.664 267.695 426.284 269.54 429.479 269.54Z" fill="white"/>
<path d="M446.712 269.54C453.327 269.54 457.467 264.41 457.467 258.11C457.467 251.81 453.327 246.725 446.712 246.725C440.097 246.725 435.957 251.81 435.957 258.11C435.957 264.41 440.097 269.54 446.712 269.54ZM446.712 266.525C442.077 266.525 439.467 262.565 439.467 258.11C439.467 253.7 442.077 249.74 446.712 249.74C451.347 249.74 453.912 253.7 453.912 258.11C453.912 262.565 451.347 266.525 446.712 266.525Z" fill="white"/>
<path d="M460.944 259.595H471.744V256.625H460.944V259.595Z" fill="white"/>
<path d="M502.695 269H506.07V253.295C506.07 248.93 503.955 246.725 499.995 246.725C496.845 246.725 493.92 248.795 492.705 250.775C492.075 248.525 490.185 246.725 486.855 246.725C483.66 246.725 480.735 249.02 479.835 250.415V247.265H476.46V269H479.835V253.115C481.005 251.36 483.345 249.74 485.55 249.74C488.385 249.74 489.555 251.495 489.555 254.24V269H492.93V253.07C494.055 251.36 496.44 249.74 498.69 249.74C501.48 249.74 502.695 251.495 502.695 254.24V269Z" fill="white"/>
<path d="M526.393 269H529.768V254.06C529.768 248.795 525.943 246.725 521.353 246.725C517.798 246.725 515.008 247.895 512.668 250.325L514.243 252.665C516.178 250.595 518.293 249.65 520.903 249.65C524.053 249.65 526.393 251.315 526.393 254.24V258.155C524.638 256.13 522.163 255.185 519.193 255.185C515.503 255.185 511.588 257.48 511.588 262.34C511.588 267.065 515.503 269.54 519.193 269.54C522.118 269.54 524.593 268.505 526.393 266.525V269ZM526.393 264.41C525.088 266.21 522.793 267.11 520.408 267.11C517.258 267.11 515.053 265.13 515.053 262.385C515.053 259.595 517.258 257.615 520.408 257.615C522.793 257.615 525.088 258.515 526.393 260.315V264.41Z" fill="white"/>
<path d="M536.533 269H539.908V253.61C540.898 251.855 543.733 250.145 545.803 250.145C546.343 250.145 546.748 250.19 547.153 250.28V246.815C544.183 246.815 541.663 248.48 539.908 250.775V247.265H536.533V269Z" fill="white"/>
<path d="M566.192 269H570.512L560.837 257.12L570.467 247.265H566.192L554.762 258.83V238.985H551.387V269H554.762V262.79L558.362 259.235L566.192 269Z" fill="white"/>
<path d="M572.187 258.11C572.187 264.905 576.822 269.54 583.257 269.54C586.812 269.54 589.737 268.37 591.897 266.21L590.277 264.005C588.567 265.76 586.047 266.75 583.572 266.75C578.892 266.75 576.012 263.33 575.742 259.235H593.337V258.38C593.337 251.855 589.467 246.725 582.897 246.725C576.687 246.725 572.187 251.81 572.187 258.11ZM582.852 249.515C587.802 249.515 589.962 253.52 590.007 256.76H575.742C575.922 253.43 578.217 249.515 582.852 249.515Z" fill="white"/>
<path d="M604.294 269.54C606.274 269.54 607.489 268.955 608.344 268.145L607.354 265.625C606.904 266.12 606.004 266.525 605.059 266.525C603.574 266.525 602.854 265.355 602.854 263.735V250.235H607.264V247.265H602.854V241.325H599.479V247.265H595.879V250.235H599.479V264.455C599.479 267.695 601.099 269.54 604.294 269.54Z" fill="white"/>
<path d="M615.406 277.28V265.715C617.161 268.145 619.771 269.54 622.741 269.54C628.456 269.54 632.416 265.13 632.416 258.11C632.416 251.045 628.456 246.725 622.741 246.725C619.681 246.725 616.981 248.3 615.406 250.505V247.265H612.031V277.28H615.406ZM628.861 258.11C628.861 262.925 626.251 266.525 621.886 266.525C619.231 266.525 616.576 264.905 615.406 263.015V253.205C616.576 251.315 619.231 249.74 621.886 249.74C626.251 249.74 628.861 253.295 628.861 258.11Z" fill="white"/>
<path d="M637.871 269H641.246V238.985H637.871V269Z" fill="white"/>
<path d="M661.569 269H664.944V254.06C664.944 248.795 661.119 246.725 656.529 246.725C652.974 246.725 650.184 247.895 647.844 250.325L649.419 252.665C651.354 250.595 653.468 249.65 656.078 249.65C659.228 249.65 661.569 251.315 661.569 254.24V258.155C659.814 256.13 657.339 255.185 654.369 255.185C650.679 255.185 646.763 257.48 646.763 262.34C646.763 267.065 650.679 269.54 654.369 269.54C657.294 269.54 659.769 268.505 661.569 266.525V269ZM661.569 264.41C660.264 266.21 657.968 267.11 655.583 267.11C652.433 267.11 650.229 265.13 650.229 262.385C650.229 259.595 652.433 257.615 655.583 257.615C657.968 257.615 660.264 258.515 661.569 260.315V264.41Z" fill="white"/>
<path d="M670.449 258.11C670.449 264.59 674.814 269.54 681.294 269.54C685.254 269.54 687.594 267.92 689.259 265.76L687.009 263.69C685.569 265.625 683.724 266.525 681.474 266.525C676.839 266.525 673.959 262.925 673.959 258.11C673.959 253.295 676.839 249.74 681.474 249.74C683.724 249.74 685.569 250.595 687.009 252.575L689.259 250.505C687.594 248.345 685.254 246.725 681.294 246.725C674.814 246.725 670.449 251.675 670.449 258.11Z" fill="white"/>
<path d="M692.729 258.11C692.729 264.905 697.364 269.54 703.799 269.54C707.354 269.54 710.279 268.37 712.439 266.21L710.819 264.005C709.109 265.76 706.589 266.75 704.114 266.75C699.434 266.75 696.554 263.33 696.284 259.235H713.879V258.38C713.879 251.855 710.009 246.725 703.439 246.725C697.229 246.725 692.729 251.81 692.729 258.11ZM703.394 249.515C708.344 249.515 710.504 253.52 710.549 256.76H696.284C696.464 253.43 698.759 249.515 703.394 249.515Z" fill="white"/>
<path fill-rule="evenodd" clip-rule="evenodd" d="M381.72 0C339.7 0 321 37.84 321 75.68C321 113.52 339.7 151.58 381.72 151.58C423.52 151.58 442.44 113.52 442.44 75.68C442.44 37.84 423.52 0 381.72 0ZM381.72 27.72C402.62 27.72 410.54 48.62 410.54 75.68C410.54 102.74 402.62 123.86 381.72 123.86C360.6 123.86 352.68 102.74 352.68 75.68C352.68 48.62 360.6 27.72 381.72 27.72ZM451.22 1.32C445.1 1.32 441.08 5.76 441.08 11.4C441.08 16.98 445.1 21.24 451.22 21.24C457.4 21.24 461.42 16.98 461.42 11.4C461.42 5.76 457.4 1.32 451.22 1.32ZM472.88 1.92L447.32 41.94H451.82L477.44 1.92H472.88ZM455.96 11.4C455.96 8.04 453.98 6.06 451.22 6.06C448.52 6.06 446.48 8.04 446.48 11.4C446.48 14.52 448.52 16.56 451.22 16.56C453.98 16.56 455.96 14.52 455.96 11.4ZM473.24 22.68C467.12 22.68 463.1 27.12 463.1 32.76C463.1 38.34 467.12 42.66 473.24 42.66C479.36 42.66 483.44 38.34 483.44 32.76C483.44 27.12 479.36 22.68 473.24 22.68ZM478.04 32.76C478.04 29.46 476 27.42 473.24 27.42C470.48 27.42 468.5 29.46 468.5 32.76C468.5 36 470.48 37.98 473.24 37.98C476 37.98 478.04 36 478.04 32.76Z" fill="url(#paint0_linear)"/>
<defs>
<linearGradient id="paint0_linear" x1="465.5" y1="9.49999" x2="339.877" y2="126.801" gradientUnits="userSpaceOnUse">
<stop stop-color="#FE7E00"/>
<stop offset="1" stop-color="#FF3B00"/>
</linearGradient>
</defs>
</svg>
