<svg width="108" height="17" viewBox="0 0 108 17" fill="none" xmlns="http://www.w3.org/2000/svg">
<path d="M0.0917969 13H4.3478C6.0558 13 7.0498 11.978 7.0498 10.48C7.0498 9.35999 6.2238 8.33799 5.2298 8.18399C6.0838 8.00199 6.8678 7.21799 6.8678 6.04199C6.8678 4.64199 5.8738 3.66199 4.2498 3.66199H0.0917969V13ZM1.2538 7.70799V4.69799H4.0538C5.1038 4.69799 5.6638 5.36999 5.6638 6.20999C5.6638 7.06399 5.1038 7.70799 4.0538 7.70799H1.2538ZM1.2538 11.964V8.74399H4.1098C5.2578 8.74399 5.8458 9.49999 5.8458 10.354C5.8458 11.348 5.2018 11.964 4.1098 11.964H1.2538Z" fill="white"/>
<path d="M13.4185 13H14.4685V6.23799H13.4185V11.208C13.0265 11.754 12.2425 12.23 11.4165 12.23C10.5065 12.23 9.90448 11.88 9.90448 10.69V6.23799H8.85448V11.012C8.85448 12.482 9.59648 13.168 11.0105 13.168C12.0185 13.168 12.9005 12.636 13.4185 12.048V13Z" fill="white"/>
<path d="M16.3554 14.694L16.1874 15.646C16.3834 15.702 16.7334 15.744 16.9574 15.744C17.8534 15.73 18.5394 15.352 18.9454 14.372L22.3334 6.23799H21.1854L18.9454 11.782L16.6914 6.23799H15.5574L18.3854 13.07L17.9374 14.092C17.6994 14.652 17.3914 14.806 16.9294 14.806C16.7614 14.806 16.5094 14.764 16.3554 14.694Z" fill="white"/>
<path d="M32.8901 13H33.9401L36.0961 6.23799H35.0041L33.3521 11.628L31.5741 6.23799H30.6781L28.9001 11.628L27.2481 6.23799H26.1561L28.3121 13H29.3621L31.1261 7.56799L32.8901 13Z" fill="white"/>
<path d="M37.8373 5.10399C38.2293 5.10399 38.5513 4.78199 38.5513 4.38999C38.5513 3.99799 38.2293 3.68999 37.8373 3.68999C37.4593 3.68999 37.1373 3.99799 37.1373 4.38999C37.1373 4.78199 37.4593 5.10399 37.8373 5.10399ZM37.3193 13H38.3693V6.23799H37.3193V13Z" fill="white"/>
<path d="M42.1719 13.168C42.7879 13.168 43.1659 12.986 43.4319 12.734L43.1239 11.95C42.9839 12.104 42.7039 12.23 42.4099 12.23C41.9479 12.23 41.7239 11.866 41.7239 11.362V7.16199H43.0959V6.23799H41.7239V4.38999H40.6739V6.23799H39.5539V7.16199H40.6739V11.586C40.6739 12.594 41.1779 13.168 42.1719 13.168Z" fill="white"/>
<path d="M49.1571 13H50.2071V8.22599C50.2071 6.75599 49.4651 6.06999 48.0511 6.06999C47.0291 6.06999 46.1051 6.65799 45.6291 7.21799V3.66199H44.5791V13H45.6291V8.05799C46.0351 7.51199 46.8191 7.00799 47.6311 7.00799C48.5411 7.00799 49.1571 7.35799 49.1571 8.54799V13Z" fill="white"/>
<path d="M74.8428 4.72412H78.19C80.3177 4.72412 81.2758 5.90503 81.2758 7.51421C81.2758 9.1234 80.3177 10.3085 78.19 10.3085H76.4479V12.9489H74.8428V4.72412ZM78.2148 8.82402C79.2808 8.82402 79.6458 8.27099 79.6458 7.51421C79.6458 6.75744 79.2808 6.22104 78.2148 6.22104H76.4479V8.82402H78.2148Z" fill="white"/>
<path d="M81.6909 9.90512C81.6909 7.93001 83.0721 6.57031 85.0381 6.57031C86.9834 6.57031 88.3355 7.88843 88.3355 9.88848V12.9405H86.9709V11.7222C86.5935 12.6412 85.7557 13.1069 84.7809 13.1069C83.2753 13.111 81.6909 12.0299 81.6909 9.90512ZM86.8506 9.8469C86.8506 8.74916 86.1206 7.9716 85.0257 7.9716C83.9307 7.9716 83.2007 8.74916 83.2007 9.8469C83.2007 10.9446 83.939 11.7222 85.0257 11.7222C86.1124 11.7222 86.8506 10.9363 86.8506 9.8469Z" fill="white"/>
<path d="M89.5837 13.631H91.0769C91.3299 14.2089 91.8193 14.4709 92.5701 14.4709C93.5862 14.4709 94.1628 13.9844 94.1628 12.7744V11.9927C93.7853 12.6704 93.1341 13.0364 92.3212 13.0364C90.8902 13.0364 89.5381 12.1049 89.5381 9.89282V6.73682H91.0271V9.89282C91.0271 11.0737 91.6534 11.6392 92.5949 11.6392C93.5116 11.6392 94.1628 11.0488 94.1628 9.89282V6.73682H95.6559V12.737C95.6559 14.8992 94.2872 15.7682 92.5701 15.7682C91.1267 15.7641 89.9321 15.0946 89.5837 13.631Z" fill="white"/>
<path d="M97.3652 4.72412H98.9745V12.9489H97.3652V4.72412Z" fill="white"/>
<path d="M100.663 4.72412H103.574C106.444 4.72412 107.954 6.37073 107.954 8.83649C107.954 11.3023 106.449 12.9489 103.574 12.9489H100.663V4.72412ZM103.574 11.4644C105.47 11.4644 106.32 10.4332 106.32 8.83649C106.32 7.23978 105.47 6.22104 103.574 6.22104H102.272V11.4686L103.574 11.4644Z" fill="white"/>
<path d="M64.3538 13.2875C63.2531 13.1413 62.2337 12.6288 61.4598 11.8326L56.9541 7.21435C57.2409 7.16734 57.5313 7.14558 57.8219 7.14934C58.6135 7.15411 59.3923 7.34986 60.0921 7.71997C60.5333 7.95565 60.9355 8.25813 61.2844 8.61668L62.9463 10.3193C62.9561 10.3301 62.9669 10.341 62.9777 10.3523C63.5001 10.8879 64.2125 11.1959 64.9605 11.2096C65.7085 11.2232 66.4317 10.9413 66.9732 10.4251L65.2376 12.1184C64.8855 12.4611 64.5875 12.8553 64.3538 13.2875Z" fill="white"/>
<path d="M68.4536 11.9419L63.8349 16.4476C63.6587 15.3651 63.841 14.2548 64.3539 13.2854C64.5876 12.8536 64.8854 12.4597 65.2372 12.1173L66.9729 10.424C67.2452 10.1647 67.4635 9.854 67.6149 9.50979C67.7663 9.16558 67.8478 8.79474 67.8548 8.41876C67.8619 8.04279 67.7942 7.66917 67.6557 7.31956C67.5172 6.96994 67.3107 6.65129 67.0482 6.38208L68.7405 8.1172C69.0893 8.47571 69.4915 8.77803 69.9328 9.01339C69.7876 10.1295 69.2658 11.1627 68.4536 11.9419Z" fill="white"/>
<path d="M73.0702 9.52236C72.7835 9.56895 72.4933 9.59053 72.2029 9.58686C71.4113 9.5817 70.6326 9.38579 69.9328 9.01571C69.4914 8.78034 69.0892 8.47803 68.7404 8.11951L67.0466 6.38336C66.7861 6.11589 66.4755 5.90236 66.1325 5.75499C65.7894 5.60763 65.4207 5.52931 65.0474 5.52452C64.6741 5.51973 64.3035 5.58855 63.9568 5.72707C63.6101 5.86558 63.2941 6.07106 63.0269 6.33177L64.7393 4.66115C65.1045 4.30611 65.4115 3.89571 65.6489 3.44507C66.7571 3.58789 67.7842 4.10183 68.5629 4.90312L73.0702 9.52236Z" fill="white"/>
<path d="M62.946 10.3204L61.2841 8.61775C60.9353 8.2592 60.5331 7.95672 60.0918 7.72104C60.2338 6.62753 60.7376 5.61297 61.523 4.83898L66.1423 0.333252C66.1891 0.619905 66.2107 0.910121 66.2068 1.20055C66.2018 1.98285 66.0106 2.75272 65.649 3.44645C65.4116 3.8971 65.1046 4.3075 64.7394 4.66253L63.027 6.33316C62.4929 6.85412 62.185 7.56421 62.1699 8.31017C62.1547 9.05613 62.4335 9.77814 62.946 10.3204Z" fill="white"/>
</svg>
