<svg width="89" height="19" viewBox="0 0 89 19" fill="none" xmlns="http://www.w3.org/2000/svg">
<path d="M0.52 15.556C2.158 17.194 4.55 18.312 7.878 18.312C12.558 18.312 14.82 15.92 14.82 12.748C14.82 8.9 11.18 8.042 8.32 7.392C6.318 6.924 4.862 6.56 4.862 5.39C4.862 4.35 5.746 3.622 7.41 3.622C9.1 3.622 10.972 4.22 12.376 5.52L14.43 2.816C12.714 1.23 10.426 0.397999 7.67 0.397999C3.588 0.397999 1.092 2.738 1.092 5.624C1.092 9.498 4.732 10.278 7.566 10.928C9.568 11.396 11.076 11.838 11.076 13.138C11.076 14.126 10.088 15.088 8.06 15.088C5.668 15.088 3.77 14.022 2.548 12.748L0.52 15.556ZM29.1878 18H32.9058V0.657999H29.1878V7.47H20.9978V0.657999H17.3058V18H20.9978V10.72H29.1878V18ZM36.3234 18H40.0154V0.657999H36.3234V18ZM43.4582 18H55.7302V14.802H47.1502V10.772H55.5482V7.6H47.1502V3.83H55.7302V0.657999H43.4582V18ZM58.6164 18H69.6404V14.75H62.3084V0.657999H58.6164V18ZM72.2258 18H79.0638C84.4978 18 88.2678 14.568 88.2678 9.342C88.2678 4.116 84.4978 0.657999 79.0638 0.657999H72.2258V18ZM75.9178 14.75V3.908H79.0638C82.6258 3.908 84.4978 6.274 84.4978 9.342C84.4978 12.28 82.4958 14.75 79.0638 14.75H75.9178Z" fill="white"/>
</svg>
