<svg width="117" height="117" viewBox="0 0 117 117" fill="none" xmlns="http://www.w3.org/2000/svg">
<path d="M58 114C88.9279 114 114 88.9279 114 58C114 27.0721 88.9279 2 58 2C27.0721 2 2 27.0721 2 58C2 88.9279 27.0721 114 58 114Z" stroke="white" stroke-miterlimit="10" stroke-linejoin="round"/>
<path d="M33.092 75.3741C33.092 77.6701 34.366 79.1681 36.9 79.1681C39.434 79.1681 40.708 77.6841 40.708 75.3601V69.6621H39.546V75.3461C39.546 77.0541 38.622 78.1321 36.9 78.1321C35.178 78.1321 34.254 77.0541 34.254 75.3461V69.6621H33.092V75.3741ZM42.8947 79.0001H44.0567V75.2901H46.6467C48.4947 75.2901 49.5727 74.0021 49.5727 72.4761C49.5727 70.9501 48.5227 69.6621 46.6467 69.6621H42.8947V79.0001ZM48.3687 72.4761C48.3687 73.5261 47.6127 74.2541 46.5067 74.2541H44.0567V70.6981H46.5067C47.6127 70.6981 48.3687 71.4261 48.3687 72.4761ZM51.1115 79.0001H56.6135V77.9641H52.2735V69.6621H51.1115V79.0001ZM57.3917 74.3381C57.3917 77.0961 59.2537 79.1681 62.0257 79.1681C64.7837 79.1681 66.6597 77.0961 66.6597 74.3381C66.6597 71.5801 64.7837 69.5081 62.0257 69.5081C59.2537 69.5081 57.3917 71.5801 57.3917 74.3381ZM65.4557 74.3381C65.4557 76.5081 64.1117 78.1321 62.0257 78.1321C59.9257 78.1321 58.5957 76.5081 58.5957 74.3381C58.5957 72.1541 59.9257 70.5441 62.0257 70.5441C64.1117 70.5441 65.4557 72.1541 65.4557 74.3381ZM74.6613 79.0001H75.9493L72.1833 69.6621H70.7413L66.9893 79.0001H68.2773L69.1033 76.9281H73.8353L74.6613 79.0001ZM71.4693 70.6981L73.4853 75.8921H69.4393L71.4693 70.6981ZM77.1701 79.0001H80.3621C83.2601 79.0001 85.1501 76.9981 85.1501 74.3381C85.1501 71.6921 83.2601 69.6621 80.3621 69.6621H77.1701V79.0001ZM78.3321 77.9641V70.6981H80.3621C82.6721 70.6981 83.9461 72.3221 83.9461 74.3381C83.9461 76.3401 82.6301 77.9641 80.3621 77.9641H78.3321Z" fill="white"/>
<path d="M64.5 58.5C67.8137 58.5 70.5 55.8137 70.5 52.5C70.5 49.1863 67.8137 46.5 64.5 46.5C61.1863 46.5 58.5 49.1863 58.5 52.5C58.5 55.8137 61.1863 58.5 64.5 58.5Z" stroke="white" stroke-miterlimit="10" stroke-linejoin="round"/>
<path d="M62 52.5H67" stroke="white" stroke-miterlimit="10" stroke-linecap="round" stroke-linejoin="round"/>
<path d="M64.5 55V50" stroke="white" stroke-miterlimit="10" stroke-linecap="round" stroke-linejoin="round"/>
<path d="M58.861 46.091L58 44L55 49.5L53 47.5L50.5 52.5H55.959" stroke="white" stroke-miterlimit="10" stroke-linecap="round" stroke-linejoin="round"/>
<path d="M52 43.5C52.8284 43.5 53.5 42.8284 53.5 42C53.5 41.1716 52.8284 40.5 52 40.5C51.1716 40.5 50.5 41.1716 50.5 42C50.5 42.8284 51.1716 43.5 52 43.5Z" stroke="white" stroke-miterlimit="10" stroke-linecap="round" stroke-linejoin="round"/>
<path d="M57.5 56.5H47.5V35.5H58.5L63.5 40.5V44.5" stroke="white" stroke-miterlimit="10" stroke-linecap="round" stroke-linejoin="round"/>
<path d="M58.5 35.5V40.5H63.5" stroke="white" stroke-miterlimit="10" stroke-linecap="round" stroke-linejoin="round"/>
</svg>
