<svg width="123" height="100" viewBox="0 0 123 100" fill="none" xmlns="http://www.w3.org/2000/svg">
<path d="M15.7722 99.1679C13.9321 99.1679 12.0263 98.7078 10.0548 97.7878C8.2147 96.8677 6.50604 95.6848 4.92882 94.239C3.48303 92.6618 2.30012 90.9532 1.38007 89.1131C0.460023 87.1415 0 85.17 0 83.1985V15.9694C0 13.9979 0.460023 12.092 1.38007 10.2519C2.30012 8.28041 3.48303 6.57176 4.92882 5.12597C6.50604 3.54875 8.2147 2.30012 10.0548 1.38007C12.0263 0.460024 13.9321 0 15.7722 0H107.054C108.894 0 110.734 0.460024 112.574 1.38007C114.546 2.30012 116.254 3.54875 117.7 5.12597C119.277 6.57176 120.526 8.28041 121.446 10.2519C122.366 12.092 122.826 13.9979 122.826 15.9694V83.1985C122.826 85.17 122.366 87.1415 121.446 89.1131C120.526 90.9532 119.277 92.6618 117.7 94.239C116.254 95.6848 114.546 96.8677 112.574 97.7878C110.734 98.7078 108.894 99.1679 107.054 99.1679H15.7722ZM58.9487 72.5522H94.4362V30.7558L58.9487 72.5522ZM63.8775 26.6156H28.39V68.412L63.8775 26.6156Z" fill="url(#paint0_linear)"/>
<defs>
<linearGradient id="paint0_linear" x1="109.261" y1="6.21516" x2="27.1205" y2="94.8608" gradientUnits="userSpaceOnUse">
<stop stop-color="#FE7E00"/>
<stop offset="1" stop-color="#FF3B00"/>
</linearGradient>
</defs>
</svg>
