<svg width="126" height="100" viewBox="0 0 126 100" fill="none" xmlns="http://www.w3.org/2000/svg">
<path d="M96.6322 33.1217V58.9487H64.4963L83.8173 35.4875C85.0002 34.1732 86.3145 32.8588 87.7603 31.5444C89.3375 30.2301 90.849 29.5729 92.2948 29.5729C93.6092 29.5729 94.6607 29.9672 95.4493 30.7558C96.2379 31.5445 96.6322 32.3331 96.6322 33.1217ZM125.022 22.4754C125.022 18.1381 124.365 14.5236 123.051 11.632C121.736 8.74044 119.896 6.44033 117.53 4.73167C115.165 3.02301 112.339 1.84009 109.053 1.18292C105.767 0.394306 102.087 0 98.0122 0C92.7548 0 87.4317 0.525739 82.0429 1.57722C76.7855 2.6287 72.6453 4.4688 69.6223 7.0975L0.618774 99.1679H33.9376L46.9497 82.8042H96.6322V99.1679H125.022V22.4754Z" fill="white"/>
</svg>
