<svg width="123" height="100" viewBox="0 0 123 100" fill="none" xmlns="http://www.w3.org/2000/svg">
<path d="M93.8396 37.459V26.6156H28.9763V72.5522H122.23V99.1679H16.3586C14.5185 99.1679 12.6126 98.7078 10.6411 97.7878C8.80102 96.8677 7.09236 95.6848 5.51514 94.239C4.06935 92.6618 2.88642 90.9532 1.96637 89.1131C1.04632 87.1415 0.586304 85.17 0.586304 83.1985V15.9694C0.586304 13.9979 1.04632 12.092 1.96637 10.2519C2.88642 8.28041 4.06935 6.57176 5.51514 5.12597C7.09236 3.54875 8.80102 2.30012 10.6411 1.38007C12.6126 0.460024 14.5185 0 16.3586 0H106.457C108.297 0 110.138 0.460024 111.978 1.38007C113.949 2.30012 115.658 3.54875 117.104 5.12597C118.681 6.57176 119.929 8.28041 120.849 10.2519C121.77 12.092 122.23 13.9979 122.23 15.9694V45.7394C122.23 47.711 121.77 49.6825 120.849 51.654C119.929 53.4941 118.681 55.2028 117.104 56.78C115.658 58.2258 113.949 59.4087 111.978 60.3288C110.138 61.2488 108.297 61.7088 106.457 61.7088H39.8197V37.459H93.8396Z" fill="white"/>
</svg>
