<svg width="124" height="100" viewBox="0 0 124 100" fill="none" xmlns="http://www.w3.org/2000/svg">
<path d="M95.2596 61.7088V72.5522H29.2134V26.6156H123.65V0H16.5956C14.7555 0 12.8497 0.460024 10.8782 1.38007C9.03807 2.30012 7.32941 3.54875 5.75218 5.12597C4.3064 6.57176 3.12348 8.28041 2.20343 10.2519C1.28339 12.092 0.823364 13.9979 0.823364 15.9694V83.1985C0.823364 85.17 1.28339 87.1415 2.20343 89.1131C3.12348 90.9532 4.3064 92.6618 5.75218 94.239C7.32941 95.6848 9.03807 96.8677 10.8782 97.7878C12.8497 98.7078 14.7555 99.1679 16.5956 99.1679H107.877C109.717 99.1679 111.558 98.7078 113.398 97.7878C115.369 96.8677 117.078 95.6848 118.524 94.239C120.101 92.6618 121.349 90.9532 122.269 89.1131C123.19 87.1415 123.65 85.17 123.65 83.1985V53.4284C123.65 51.4569 123.19 49.5511 122.269 47.711C121.349 45.7394 120.101 44.0308 118.524 42.585C117.078 41.0078 115.369 39.7591 113.398 38.8391C111.558 37.9191 109.717 37.459 107.877 37.459H47.5486V61.7088H95.2596Z" fill="white"/>
</svg>
