<svg width="149" height="100" viewBox="0 0 149 100" fill="none" xmlns="http://www.w3.org/2000/svg">
<path d="M28.9823 99.1679V43.7679C35.2912 54.9399 41.2058 64.6661 46.7261 72.9465C52.3778 81.0955 56.5837 87.0758 59.3438 90.8874C61.9725 94.5676 64.2069 96.8677 66.047 97.7878C68.0186 98.7078 70.0558 99.1679 72.1588 99.1679H76.4961C77.8105 99.1679 79.5848 98.7078 81.8192 97.7878C84.1851 96.8677 86.6824 94.5676 89.3111 90.8874C92.0712 87.0758 96.2114 81.0955 101.732 72.9465C107.383 64.6661 113.364 54.9399 119.673 43.7679V99.1679H148.063V12.4206C148.063 10.9748 147.603 9.52905 146.683 8.08327C145.894 6.50604 144.777 5.12597 143.331 3.94306C141.885 2.76014 140.176 1.84009 138.205 1.18292C136.233 0.394306 134.13 0 131.896 0H124.207C120.658 0.525742 117.175 1.8401 113.758 3.94306C110.472 6.04602 107.843 8.74044 105.872 12.0263L74.3275 64.0747L42.783 12.0263C40.8115 8.74044 38.1171 6.04602 34.6997 3.94306C31.4139 1.8401 27.9965 0.525742 24.4478 0H16.7588C14.5244 0 12.4215 0.394306 10.45 1.18292C8.47842 1.84009 6.76976 2.76014 5.32397 3.94306C3.87819 5.12597 2.69525 6.50604 1.77521 8.08327C0.986596 9.52905 0.592285 10.9748 0.592285 12.4206V99.1679H28.9823Z" fill="white"/>
</svg>
