<svg width="133" height="100" viewBox="0 0 133 100" fill="none" xmlns="http://www.w3.org/2000/svg">
<path d="M104.089 61.7088V72.5522H0.78125V99.1679H116.707C118.547 99.1679 120.387 98.7078 122.227 97.7878C124.199 96.8677 125.907 95.6848 127.353 94.239C128.93 92.6618 130.179 90.9532 131.099 89.1131C132.019 87.1415 132.479 85.17 132.479 83.1985V53.4284C132.479 51.4569 132.019 49.5511 131.099 47.711C130.179 45.7394 128.93 44.0308 127.353 42.585C125.907 41.0078 124.199 39.7591 122.227 38.8391C120.387 37.9191 118.547 37.459 116.707 37.459H40.4089V26.6156H132.479V0H27.7911C25.951 0 24.0452 0.460024 22.0737 1.38007C20.2336 2.30012 18.525 3.54875 16.9478 5.12597C15.502 6.57176 14.319 8.28041 13.399 10.2519C12.4789 12.092 12.0189 13.9979 12.0189 15.9694V45.7394C12.0189 47.711 12.4789 49.6825 13.399 51.654C14.319 53.4941 15.502 55.2028 16.9478 56.78C18.525 58.2258 20.2336 59.4087 22.0737 60.3288C24.0452 61.2488 25.951 61.7088 27.7911 61.7088H104.089Z" fill="white"/>
</svg>
