<svg width="209" height="25" viewBox="0 0 209 25" fill="none" xmlns="http://www.w3.org/2000/svg">
<path d="M27.776 18.852C25.092 18.852 23.112 17.18 22.364 14.716H38.776C38.776 6.136 34.596 0.723999 27.468 0.723999C24.124 0.723999 21.176 2 19.064 4.112C17.524 2 14.884 0.723999 11.452 0.723999C8.28397 0.723999 5.68797 1.604 2.47597 3.232L4.63197 7.5C6.43597 6.576 8.41597 5.872 10.528 5.872C14.268 5.872 15.764 7.984 15.764 10.404V10.844C13.828 10.096 11.804 9.7 9.95597 9.7C4.67597 9.7 0.495972 12.78 0.495972 17.268C0.495972 21.668 4.27997 24.528 10.044 24.528C13.916 24.528 16.996 23.12 18.844 20.744C21.044 23.12 24.212 24.528 27.82 24.528C31.164 24.528 35.08 23.12 37.104 21.008L33.012 16.828C31.78 18.016 29.58 18.852 27.776 18.852ZM27.732 6.4C30.328 6.4 32 7.852 32.616 10.096H22.452C23.288 7.808 25.312 6.4 27.732 6.4ZM10.704 20.084C8.23997 20.084 6.69997 18.94 6.69997 17.092C6.69997 15.244 8.54797 13.88 10.88 13.88C12.64 13.88 14.312 14.188 15.764 14.716V16.124C15.764 18.412 13.652 20.084 10.704 20.084Z" fill="url(#paint0_linear)"/>
<path d="M51.6449 24.528C57.2329 24.528 60.8849 21.668 60.8849 17.18C60.8849 12.208 56.5289 10.888 52.6129 9.876C49.5329 9.04 48.6089 8.688 48.6089 7.456C48.6089 6.664 49.7089 6.092 51.2929 6.092C53.2289 6.092 55.6049 6.84 57.6729 8.116L60.2689 3.54C57.7609 1.868 54.5489 0.723999 51.2929 0.723999C45.9249 0.723999 42.3609 3.804 42.4049 8.116C42.4489 12.604 46.0569 13.88 50.7209 15.024C53.0529 15.64 54.7249 16.08 54.7249 17.488C54.7249 18.5 53.4929 19.204 51.7769 19.204C48.7409 19.204 46.1889 18.104 44.1649 16.652L41.3929 21.096C44.1209 23.296 47.9929 24.528 51.6449 24.528Z" fill="url(#paint1_linear)"/>
<path d="M80.2869 1.252V14.848L80.2429 14.716C80.2429 17.18 78.1749 19.116 75.4909 19.116C72.9389 19.116 71.1789 17.18 71.1789 14.364V1.252H64.9749V15.728C64.9749 20.876 68.4949 24.528 73.4229 24.528C76.3709 24.528 78.9229 23.208 80.2869 21.14V24H86.7109V1.252H80.2869Z" fill="url(#paint2_linear)"/>
<path d="M98.6462 5.476V1.252H92.2222V24H98.6462V13.132C98.6462 8.864 101.682 6.136 106.434 6.136V0.723999C102.958 0.723999 100.142 2.528 98.6462 5.476Z" fill="url(#paint3_linear)"/>
<path d="M120.304 0.723999C117.136 0.723999 114.012 1.604 110.8 3.232L112.956 7.5C114.76 6.576 116.74 5.872 118.852 5.872C122.592 5.872 124.088 7.984 124.088 10.404V10.844C122.152 10.096 120.128 9.7 118.28 9.7C113 9.7 108.82 12.78 108.82 17.268C108.82 21.624 112.56 24.528 117.4 24.528C119.864 24.528 122.46 23.56 124.088 21.712V24H130.292V10.404C130.292 4.464 126.244 0.723999 120.304 0.723999ZM118.852 20.084C116.652 20.084 115.024 18.94 115.024 17.092C115.024 15.244 116.872 13.88 119.204 13.88C120.964 13.88 122.636 14.188 124.088 14.716V16.828C123.648 18.94 121.316 20.084 118.852 20.084Z" fill="url(#paint4_linear)"/>
<path d="M148.863 0.723999C145.915 0.723999 143.363 2.044 141.999 4.112V1.252H135.575V24H141.999V10.404L142.043 10.536C142.043 8.072 144.111 6.136 146.795 6.136C149.347 6.136 151.107 8.072 151.107 10.888V24H157.311V9.524C157.311 4.376 153.791 0.723999 148.863 0.723999Z" fill="url(#paint5_linear)"/>
<path d="M173.866 24.528C177.65 24.528 180.73 22.988 182.974 20.524L178.706 16.916C177.518 18.236 175.67 19.116 173.91 19.116C170.522 19.116 167.706 16.124 167.706 12.56C167.706 9.084 170.522 6.136 173.866 6.136C175.626 6.136 177.43 6.972 178.574 8.248L182.842 4.596C180.642 2.22 177.606 0.723999 173.91 0.723999C167.178 0.723999 161.458 6.136 161.458 12.604C161.458 19.072 167.134 24.528 173.866 24.528Z" fill="url(#paint6_linear)"/>
<path d="M197.575 18.852C194.891 18.852 192.911 17.18 192.163 14.716H208.575C208.575 6.136 204.395 0.723999 197.267 0.723999C190.623 0.723999 185.563 5.696 185.563 12.56C185.563 19.556 190.843 24.528 197.619 24.528C200.963 24.528 204.879 23.12 206.903 21.008L202.811 16.828C201.579 18.016 199.379 18.852 197.575 18.852ZM197.531 6.4C200.127 6.4 201.799 7.852 202.415 10.096H192.251C193.087 7.808 195.111 6.4 197.531 6.4Z" fill="url(#paint7_linear)"/>
<defs>
<linearGradient id="paint0_linear" x1="191.923" y1="0.723999" x2="158.941" y2="85.8478" gradientUnits="userSpaceOnUse">
<stop stop-color="#6D53F9"/>
<stop offset="1" stop-color="#F23CE3"/>
</linearGradient>
<linearGradient id="paint1_linear" x1="191.923" y1="0.723999" x2="158.941" y2="85.8478" gradientUnits="userSpaceOnUse">
<stop stop-color="#6D53F9"/>
<stop offset="1" stop-color="#F23CE3"/>
</linearGradient>
<linearGradient id="paint2_linear" x1="191.923" y1="0.723999" x2="158.941" y2="85.8478" gradientUnits="userSpaceOnUse">
<stop stop-color="#6D53F9"/>
<stop offset="1" stop-color="#F23CE3"/>
</linearGradient>
<linearGradient id="paint3_linear" x1="191.923" y1="0.723999" x2="158.941" y2="85.8478" gradientUnits="userSpaceOnUse">
<stop stop-color="#6D53F9"/>
<stop offset="1" stop-color="#F23CE3"/>
</linearGradient>
<linearGradient id="paint4_linear" x1="191.923" y1="0.723999" x2="158.941" y2="85.8478" gradientUnits="userSpaceOnUse">
<stop stop-color="#6D53F9"/>
<stop offset="1" stop-color="#F23CE3"/>
</linearGradient>
<linearGradient id="paint5_linear" x1="191.923" y1="0.723999" x2="158.941" y2="85.8478" gradientUnits="userSpaceOnUse">
<stop stop-color="#6D53F9"/>
<stop offset="1" stop-color="#F23CE3"/>
</linearGradient>
<linearGradient id="paint6_linear" x1="191.923" y1="0.723999" x2="158.941" y2="85.8478" gradientUnits="userSpaceOnUse">
<stop stop-color="#6D53F9"/>
<stop offset="1" stop-color="#F23CE3"/>
</linearGradient>
<linearGradient id="paint7_linear" x1="191.923" y1="0.723999" x2="158.941" y2="85.8478" gradientUnits="userSpaceOnUse">
<stop stop-color="#6D53F9"/>
<stop offset="1" stop-color="#F23CE3"/>
</linearGradient>
</defs>
</svg>
